<svg xmlns="http://www.w3.org/2000/svg" viewBox="0 0 24 24" width="24" height="24"><path d="M.045 18.02c.072-.116.187-.124.348-.064 2.729 1.353 5.706 2.03 8.93 2.03 2.573 0 5.063-.472 7.47-1.414.535-.21.988-.404 1.358-.582.228-.112.394-.168.498-.168.254 0 .382.188.382.564 0 .267-.145.564-.435.89-.29.328-.78.74-1.473 1.235C14.835 22.2 12.14 23 9.42 23c-2.99 0-5.568-.776-7.737-2.33-.404-.29-.606-.564-.606-.824 0-.132.069-.307.208-.518z" fill="#FF9900"/><path d="M21.67 17.34c-.202-.254-.503-.382-.905-.382l-.19.014c-.468.049-.975.236-1.523.558-.548.321-1.015.621-1.4.898-.387.279-.472.466-.252.564.22.098.63.05 1.235-.147.6-.196 1.145-.46 1.63-.79.487-.33.82-.62 1-.87.18-.25.2-.5.072-.743z" fill="#FF9900"/></svg>
