<svg xmlns="http://www.w3.org/2000/svg" viewBox="0 0 24 24" width="24" height="24"><path d="M8.084 2.39c2.794 0 5.073.592 6.838 1.777 1.766 1.186 2.648 2.86 2.648 5.024 0 2.163-.882 3.838-2.648 5.023-1.765 1.186-4.044 1.778-6.838 1.778H3.593v5.619H0V2.39h8.084zm-.36 10.352c1.542 0 2.77-.28 3.687-.837.916-.558 1.374-1.386 1.374-2.483s-.458-1.924-1.374-2.482c-.917-.558-2.145-.837-3.687-.837H3.593v6.639h4.131z" fill="#39594D"/><path d="M21.128 7.598c.896 0 1.65.153 2.262.458.612.304.918.832.918 1.583v7.66c0 .773-.216 1.396-.647 1.867-.432.471-1.099.706-2.003.706h-4.186c-1.2 0-2.131-.246-2.794-.739-.663-.492-.995-1.152-.995-1.982 0-.83.332-1.458.995-1.885.663-.426 1.593-.64 2.794-.64h4.276v-.95c0-.403-.19-.69-.573-.865-.382-.174-.949-.261-1.7-.261h-5.09V10.11h5.09c.474 0 .935.03 1.385.092.45.06.861.17 1.233.332-.373-.545-.863-.967-1.473-1.265a5.32 5.32 0 0 0-2.316-.523h-3.918V7.598h6.742zm-.09 8.62c.382 0 .644-.084.787-.25.143-.168.215-.39.215-.669v-.863h-3.738c-.499 0-.877.07-1.133.207-.256.139-.384.361-.384.667 0 .307.128.53.384.669.256.14.634.208 1.133.208h2.737z" fill="#39594D"/></svg>
