<svg xmlns="http://www.w3.org/2000/svg" viewBox="0 0 24 24" width="24" height="24"><path d="M15.852 8.981h-4.588V0h4.588c2.476 0 4.49 2.014 4.49 4.49s-2.014 4.491-4.49 4.491z" fill="#FF7262"/><path d="M12.735 24h-4.588c-2.476 0-4.49-2.014-4.49-4.49s2.014-4.49 4.49-4.49h4.588v8.98z" fill="#0ACF83"/><path d="M8.148 8.981c-2.476 0-4.49-2.014-4.49-4.49S5.672 0 8.148 0h4.588v8.981H8.148z" fill="#F24E1E"/><path d="M8.148 17.962c-2.476 0-4.49-2.014-4.49-4.49s2.014-4.49 4.49-4.49h4.588v8.98H8.148z" fill="#A259FF"/><circle cx="15.852" cy="13.471" r="4.49" fill="#1ABCFE"/></svg>
