<svg xmlns="http://www.w3.org/2000/svg" viewBox="0 0 24 24" width="24" height="24"><path d="M6.915 4.03c-1.968 0-3.683 1.28-4.871 3.113C.704 9.208 0 11.883 0 14.449c0 .706.07 1.369.21 1.973.336 1.463 1.229 2.578 2.612 2.578.87 0 1.618-.485 2.312-1.246l.899-1.028c.615-.72 1.26-1.263 2.14-1.263.62 0 1.161.248 1.704.693l.706.6c.632.556 1.308 1.015 2.317 1.015 1.089 0 1.98-.647 2.57-1.672.67-1.16 1.011-2.671 1.011-4.269 0-2.353-.728-4.833-2.003-6.546C13.329 3.35 11.84 2.2 9.98 2.2c-.91 0-1.746.386-2.396 1.042-.65.657-1.117 1.567-1.383 2.627-.025.1-.083.173-.158.173-.066 0-.116-.057-.14-.14-.27-.993-.66-1.853-1.241-2.51A3.206 3.206 0 0 0 6.915 4.03z" fill="#0081FB"/><path d="M21.584 4.03c-1.587 0-2.874 1.29-3.764 3.168-.727 1.533-1.1 3.368-1.1 5.131 0 1.418.259 2.703.722 3.548.377.688.863 1.066 1.427 1.066.736 0 1.345-.479 1.873-1.259.664-.979 1.094-2.371 1.094-3.819 0-1.437-.387-2.835-1.061-3.853-.528-.795-1.178-1.305-1.902-1.305-.136 0-.255.028-.364.082" fill="#0081FB"/></svg>
