<svg xmlns="http://www.w3.org/2000/svg" viewBox="0 0 24 24" width="24" height="24"><rect x="1" y="1" width="4.5" height="4.5" fill="#000"/><rect x="9.75" y="1" width="4.5" height="4.5" fill="#F7D046"/><rect x="18.5" y="1" width="4.5" height="4.5" fill="#000"/><rect x="1" y="6.5" width="4.5" height="4.5" fill="#000"/><rect x="5.5" y="6.5" width="4.5" height="4.5" fill="#F2A73B"/><rect x="14" y="6.5" width="4.5" height="4.5" fill="#F2A73B"/><rect x="18.5" y="6.5" width="4.5" height="4.5" fill="#000"/><rect x="1" y="12" width="4.5" height="4.5" fill="#000"/><rect x="5.5" y="12" width="4.5" height="4.5" fill="#EF6B3E"/><rect x="9.75" y="12" width="4.5" height="4.5" fill="#EF6B3E"/><rect x="14" y="12" width="4.5" height="4.5" fill="#EE3F36"/><rect x="18.5" y="12" width="4.5" height="4.5" fill="#000"/><rect x="1" y="17.5" width="4.5" height="4.5" fill="#000"/><rect x="14" y="17.5" width="4.5" height="4.5" fill="#000"/><rect x="18.5" y="17.5" width="4.5" height="4.5" fill="#000"/></svg>
