<svg xmlns="http://www.w3.org/2000/svg" viewBox="0 0 24 24" width="24" height="24"><path d="M8.948 8.798v-1.43a6.7 6.7 0 0 1 .424-.018c3.922-.124 6.493 3.374 6.493 3.374s-2.774 3.851-5.75 3.851c-.422 0-.822-.068-1.167-.2v-4.584c1.633.2 1.963.9 2.94 2.213l2.184-1.86s-1.778-2.383-4.348-2.383c-.276 0-.536.018-.776.037zm0-4.584v2.1l.424-.024c5.512-.182 9.118 4.724 9.118 4.724s-4.136 5.2-8.394 5.2c-.396 0-.776-.037-1.148-.112v1.672c.32.044.66.072 1.012.072 3.87 0 6.664-1.966 9.389-4.254.452.362 2.303 1.242 2.683 1.628-2.57 2.078-8.542 3.748-11.985 3.748-.378 0-.74-.024-1.1-.068v1.894H22V4.214H8.948zM2 18.514v-14.3h3.545v1.238c-1.607.018-2.127.234-2.752.894v9.26c.564.606 1.09.786 2.527.804h.225v1.392L2 18.514z" fill="#76B900"/></svg>
