<svg xmlns="http://www.w3.org/2000/svg" viewBox="0 0 24 24" width="24" height="24"><path d="M12 5.362l2.475-3.026s4.245.09 8.471 2.054c-1.082 1.636-3.231 2.438-3.231 2.438-.146-1.439-1.154-1.79-4.354-1.79L12 24 8.619 5.034c-3.18 0-4.188.354-4.335 1.792 0 0-2.148-.807-3.23-2.442C5.28 2.431 9.525 2.34 9.525 2.34L12 5.362zM12 .587c2.688-.12 7.036.26 11.22 2.178.17-.244.332-.5.48-.78C19.53.07 14.682-.117 12-.15c-2.682.033-7.53.22-11.7 2.135.148.28.31.536.48.78C4.964.847 9.312.467 12 .587" fill="#CC0000"/></svg>
